<svg xmlns="http://www.w3.org/2000/svg" viewBox="0 0 666.4 447.1"><defs><style>.cls-1{fill:#f5f5f5;}.cls-2,.cls-4{fill:#e0e0e0;}.cls-3{fill:none;}.cls-4{fill-rule:evenodd;}.cls-5{fill:#fafafa;}.cls-6{fill:#ebebeb;}.cls-7{fill:#263238;}.cls-8{fill:#455a64;}.cls-12,.cls-9{fill:#fff;}.cls-10{fill:#44b3e6;}.cls-11{fill:#b78876;}.cls-12{opacity:0.4;}.cls-13{opacity:0.5;}.cls-14{opacity:0.3;}.cls-15{fill:#aa6550;}</style></defs><g id="Слой_2" data-name="Слой 2"><g id="Background_Complete" data-name="Background Complete"><path class="cls-1" d="M601.37,416.42c-15.56-10.86-19.09-31-18.47-49.16.1-3-.23-6.22,1.21-8.87s4.8-4.47,7.51-3.2c2.25,1.06,3.22,3.68,4.48,5.84a17.81,17.81,0,0,0,7.1,6.78c1.93,1,4.31,1.61,6.21.56,2.61-1.44,2.92-5.05,2.9-8.06q0-8.42-.1-16.83a28.2,28.2,0,0,1,.9-8.94c.94-2.85,3-5.51,5.87-6.31s6.41.85,7,3.8a29.11,29.11,0,0,1,.09,3.74c.08,1.25.66,2.64,1.85,3s2.4-.5,3.3-1.38c3.11-3,5.22-6.95,7.19-10.84s3.88-7.88,6.7-11.2,6.72-5.94,11-6.18,8.9,2.41,10,6.65-1.38,8.54-4.08,12a67,67,0,0,1-14,13.33,5.63,5.63,0,0,0-2.34,2.52c-.65,2,1.25,4,3.23,4.66,2.25.74,4.68.51,7,.79s4.89,1.31,5.77,3.53c1.24,3.07-1.34,6.3-3.87,8.41a57.42,57.42,0,0,1-17,9.83c-2.21.81-4.54,1.52-6.33,3.08s-2.86,4.26-1.78,6.38,3.84,2.8,6.16,2.37,4.4-1.69,6.61-2.52c4.13-1.57,9.48-1.28,12.13,2.29a9.55,9.55,0,0,1,1,8.43,22.12,22.12,0,0,1-4.56,7.44,58,58,0,0,1-24.71,17.36c-9.6,3.33-18.49,4.23-28,.74"/><path class="cls-2" d="M601.13,429.86a132,132,0,0,1,4.91-24.8,270.1,270.1,0,0,1,10.71-29l3.2-7.47c1-2.44,2.1-4.87,3.27-7.18a133.35,133.35,0,0,1,7.48-12.9c2.58-4,5.17-7.68,7.62-11.11s4.81-6.58,7.08-9.36a106,106,0,0,1,11.65-12.32c1.48-1.34,2.67-2.35,3.48-3l.93-.75a1.88,1.88,0,0,1,.33-.24,2.44,2.44,0,0,1-.29.28l-.89.8c-.79.7-2,1.73-3.42,3.09a113.24,113.24,0,0,0-11.49,12.41c-2.24,2.79-4.57,5.95-7,9.38s-5,7.14-7.56,11.12a136.13,136.13,0,0,0-7.43,12.86c-1.16,2.3-2.19,4.71-3.25,7.17l-3.19,7.46a276.22,276.22,0,0,0-10.73,29,134.48,134.48,0,0,0-5,24.7"/><path class="cls-2" d="M623.38,361.34a5.93,5.93,0,0,1-.3-1.28c-.16-.83-.34-2-.56-3.54-.42-3-.87-7.16-1.34-11.74s-1-8.73-1.45-11.71c-.23-1.49-.43-2.7-.58-3.53a6.2,6.2,0,0,1-.17-1.31,5.8,5.8,0,0,1,.38,1.26c.21.82.47,2,.75,3.51.57,3,1.14,7.12,1.62,11.72s.87,8.62,1.18,11.75c.15,1.41.28,2.6.39,3.56A7.53,7.53,0,0,1,623.38,361.34Z"/><path class="cls-2" d="M662.07,354.11a7.63,7.63,0,0,1-1.54.19c-1,.09-2.43.21-4.2.41-3.55.38-8.42,1.08-13.77,2.09S632.41,359,629,359.86c-1.72.45-3.11.84-4.07,1.11a7.33,7.33,0,0,1-1.51.37,8.23,8.23,0,0,1,1.44-.57c.95-.34,2.32-.79,4-1.29,3.43-1,8.23-2.21,13.6-3.23a135.75,135.75,0,0,1,13.83-1.93c1.78-.16,3.23-.22,4.23-.24A7.76,7.76,0,0,1,662.07,354.11Z"/><path class="cls-2" d="M606.52,404.34s-.11-.15-.26-.47l-.67-1.4c-.57-1.22-1.34-3-2.28-5.22-1.86-4.43-4.25-10.63-6.79-17.52s-4.87-13.1-6.64-17.56l-2.11-5.29q-.35-.86-.57-1.44a1.93,1.93,0,0,1-.16-.52,2,2,0,0,1,.26.48c.18.37.4.84.67,1.39.56,1.22,1.34,3,2.27,5.22,1.87,4.44,4.26,10.64,6.8,17.53s4.87,13.1,6.64,17.56c.87,2.17,1.58,4,2.11,5.29.23.57.41,1.05.57,1.44A2.06,2.06,0,0,1,606.52,404.34Z"/><path class="cls-2" d="M657.94,387.77a1.9,1.9,0,0,1-.51.21l-1.49.5-5.51,1.79c-4.65,1.51-11,3.66-18.11,6.05s-13.49,4.5-18.17,5.91c-2.34.7-4.24,1.26-5.56,1.61l-1.53.4a1.68,1.68,0,0,1-.54.1,2.81,2.81,0,0,1,.51-.21l1.49-.5,5.51-1.78c4.65-1.51,11.05-3.66,18.11-6.06s13.49-4.49,18.18-5.9c2.34-.71,4.24-1.26,5.56-1.62l1.52-.4A2.2,2.2,0,0,1,657.94,387.77Z"/><path class="cls-3" d="M633.73,186.12a30.48,30.48,0,0,1-5.61,5.89l1.46,7.4-11.41,5.06-4.5-6a30.68,30.68,0,0,1-8.13.2l-4.2,6.26-11.65-4.49,1.09-7.45a30.82,30.82,0,0,1-5.89-5.62l-7.4,1.46-5.06-11.4,6.05-4.51a30.68,30.68,0,0,1-.2-8.13l-6.27-4.2,4.49-11.64L584,150a30.48,30.48,0,0,1,5.61-5.89l-1.46-7.4,11.41-5.06,4.5,6a30.34,30.34,0,0,1,8.14-.21l4.2-6.26L628,135.72l-1.09,7.46a30.46,30.46,0,0,1,5.89,5.61l7.4-1.46,5.06,11.4-6,4.51a30.68,30.68,0,0,1,.21,8.13l6.26,4.2-4.49,11.64-7.46-1.09Zm-12.6-12.72a13.38,13.38,0,1,0-17.3,7.68A13.38,13.38,0,0,0,621.13,173.4Z"/><path class="cls-2" d="M621.13,173.4a10.2,10.2,0,0,1-1.44,3,13.34,13.34,0,0,1-7.24,5.3,13.5,13.5,0,0,1-6.29.37,13.71,13.71,0,0,1-6.53-3.11,13.85,13.85,0,0,1-4.26-6.76A13.66,13.66,0,0,1,601.23,157a13.67,13.67,0,0,1,7.69-2.15,13.64,13.64,0,0,1,6.92,2.08,13.5,13.5,0,0,1,6.23,13.28,10.19,10.19,0,0,1-.94,3.18c-.09,0,.4-1.12.64-3.21a13.41,13.41,0,0,0-2-8.47,13.08,13.08,0,0,0-4.29-4.24,13.25,13.25,0,0,0-6.61-1.91,13.06,13.06,0,0,0-7.27,2.08A13,13,0,0,0,596.1,172a12.17,12.17,0,0,0,1.57,3.57,12.37,12.37,0,0,0,2.43,2.84,13.1,13.1,0,0,0,12.2,2.76,13.36,13.36,0,0,0,7.14-4.95A29.14,29.14,0,0,0,621.13,173.4Z"/><path class="cls-2" d="M633.73,186.12l.47,0,1.42.18,5.59.75-.13.08,4.42-11.67.07.23-6.28-4.17-.11-.08v-.13a30.24,30.24,0,0,0-.23-8.07l0-.15.12-.09,6-4.53-.09.33-5.09-11.39.34.17-7.4,1.48-.19,0-.12-.16a30.39,30.39,0,0,0-5.84-5.54l-.16-.11,0-.2c.34-2.32.7-4.87,1.08-7.46l.22.37-11.65-4.48.42-.13-4.19,6.26-.12.19-.22,0a30.77,30.77,0,0,0-8,.21l-.22,0-.13-.18c-1.42-1.9-3-4-4.51-6l.45.12-11.4,5.06.22-.42L590,144l0,.23-.18.15a29.77,29.77,0,0,0-5.53,5.81h0c-.16.07.37-.15-.36.16h-.11l-.12,0-.24,0-.47-.07-.93-.14-1.87-.27-3.72-.54.41-.24q-2.28,5.89-4.49,11.64l-.14-.45,6.26,4.2.19.12,0,.23a30.35,30.35,0,0,0,.2,8l0,.23-.18.13-6.05,4.5.12-.44q2.58,5.85,5.05,11.41l-.4-.2,7.41-1.45.2,0,.13.16a30.55,30.55,0,0,0,5.82,5.56l.16.12,0,.19c-.38,2.56-.74,5-1.1,7.46l-.2-.34,11.63,4.51-.35.11,4.22-6.25.09-.14.17,0a30.72,30.72,0,0,0,8.06-.18l.15,0,.09.13,4.49,6.06-.28-.07,11.43-5-.1.19c-.56-3-1-5.39-1.41-7.41V192l0,0a32.1,32.1,0,0,0,4.4-4.24l1-1.17a4.06,4.06,0,0,1,.32-.39,4.74,4.74,0,0,1-.27.43c-.2.27-.49.68-.92,1.21a29.25,29.25,0,0,1-4.34,4.35l0-.12c.41,2,.91,4.44,1.51,7.39l0,.13-.13.06-11.38,5.11-.17.08-.11-.15-4.52-6,.24.1a31.27,31.27,0,0,1-8.2.23l.25-.13-4.18,6.28-.13.19-.22-.08-11.65-4.47-.24-.09,0-.25c.35-2.42.71-4.9,1.07-7.46l.14.31a31,31,0,0,1-6-5.66l.34.12-7.4,1.47-.28.06-.11-.26-5.07-11.4-.12-.27.23-.17,6-4.52-.15.36a31,31,0,0,1-.21-8.23l.17.35-6.27-4.19-.25-.17.11-.29,4.48-11.64.11-.29.31.05,3.72.54,1.87.27.93.14.47.07.24,0,.12,0H584l-.37.15h0a30.77,30.77,0,0,1,5.68-6l-.13.37c-.51-2.54-1-5.06-1.46-7.4l-.06-.3.28-.12,11.41-5.06.27-.12.18.24,4.5,6.05-.35-.14a30.91,30.91,0,0,1,8.23-.2l-.35.16,4.21-6.26.16-.24.26.11,11.64,4.5.26.1,0,.27c-.39,2.59-.76,5.14-1.1,7.45l-.14-.31a31.08,31.08,0,0,1,5.95,5.68l-.31-.11,7.4-1.45.24-.05.1.22c1.76,4,3.45,7.83,5,11.42l.09.2-.18.13-6.06,4.49.1-.24a30.7,30.7,0,0,1,.18,8.2l-.1-.22,6.25,4.23.13.09-.06.14c-1.86,4.73-3.39,8.64-4.55,11.62l0,.09-.1,0-5.52-.87-1.43-.24A2.59,2.59,0,0,1,633.73,186.12Z"/><path class="cls-4" d="M551.39,85.77a43.56,43.56,0,0,1-7.93,8.33l2.06,10.46-16.12,7.15L523,103.16a42.83,42.83,0,0,1-11.49.29l-5.94,8.86L489.13,106l1.54-10.55a42.69,42.69,0,0,1-8.33-7.93l-10.47,2.07-7.15-16.13,8.55-6.37a43.33,43.33,0,0,1-.29-11.5l-8.85-5.94,6.34-16.46L481,34.69A43,43,0,0,1,489,26.36L486.89,15.9,503,8.74l6.37,8.56a43.32,43.32,0,0,1,11.5-.29l5.93-8.86,16.47,6.35L541.75,25A43.61,43.61,0,0,1,550.08,33l10.46-2.07L567.69,47l-8.55,6.37a43.33,43.33,0,0,1,.29,11.5l8.85,5.94-6.34,16.46-10.55-1.54Zm-17.81-18a18.93,18.93,0,1,0-24.47,10.86A18.92,18.92,0,0,0,533.58,67.78Z"/><path class="cls-4" d="M633.14,108.5a24.33,24.33,0,0,1-4.39,4.61l1.14,5.79-8.93,4-3.52-4.73a24.23,24.23,0,0,1-6.37.16l-3.29,4.9-9.11-3.51.85-5.84a23.78,23.78,0,0,1-4.61-4.4l-5.79,1.15-4-8.93,4.73-3.53a24.2,24.2,0,0,1-.16-6.37l-4.9-3.28,3.51-9.12,5.84.86a24.39,24.39,0,0,1,4.39-4.62l-1.14-5.79,8.93-4,3.53,4.74a23.32,23.32,0,0,1,6.36-.16l3.29-4.91L628.65,69l-.85,5.84a23.44,23.44,0,0,1,4.61,4.39l5.79-1.14,4,8.92-4.74,3.53a24.2,24.2,0,0,1,.16,6.37l4.9,3.28L639,109.35l-5.84-.85Zm-9.86-10a10.48,10.48,0,1,0-13.55,6A10.48,10.48,0,0,0,623.28,98.54Z"/><path class="cls-3" d="M436.76,8.23a20.55,20.55,0,0,1,3.88,3.8l4.95-.91,3.26,7.66-4.07,2.95a20.47,20.47,0,0,1,.06,5.42L449,30l-3.1,7.73-5-.8a20.5,20.5,0,0,1-3.79,3.88l.9,5L430.36,49,427.41,45A20.55,20.55,0,0,1,422,45l-2.86,4.13-7.73-3.1.8-5a20.5,20.5,0,0,1-3.87-3.8l-4.95.9-3.27-7.66,4.08-2.94a20.13,20.13,0,0,1-.06-5.43L400,19.3l3.1-7.72,5,.79a20.2,20.2,0,0,1,3.8-3.87l-.91-4.95L418.6.28l2.95,4.08A20.06,20.06,0,0,1,427,4.3L429.83.16l7.73,3.1-.8,5Zm-8.6,8.28a8.93,8.93,0,1,0,4.95,11.62A8.93,8.93,0,0,0,428.16,16.51Z"/><path class="cls-2" d="M428.16,16.51a6.93,6.93,0,0,1,2,1,8.89,8.89,0,0,1,3.47,4.88,9,9,0,0,1-2,8.52,8.47,8.47,0,0,1-2,1.7,8.63,8.63,0,0,1-2.53,1.08,9.11,9.11,0,0,1-10.07-4A8.37,8.37,0,0,1,416,27.11a8.75,8.75,0,0,1-.29-2.62,9.34,9.34,0,0,1,1.45-4.61,9.08,9.08,0,0,1,3-2.9A8.93,8.93,0,0,1,426,15.86a6.78,6.78,0,0,1,2.12.65,21.71,21.71,0,0,0-2.14-.45,8.9,8.9,0,0,0-5.67,1.23,8.7,8.7,0,0,0-4.2,7.21,8.69,8.69,0,0,0,1.31,4.87A8.65,8.65,0,0,0,427,33.2a8,8,0,0,0,2.4-1,8.26,8.26,0,0,0,1.92-1.59,8.81,8.81,0,0,0,2.07-4.09,8.58,8.58,0,0,0-.12-4A9,9,0,0,0,430,17.66C428.89,16.83,428.13,16.57,428.16,16.51Z"/><path class="cls-2" d="M436.76,8.23a1.22,1.22,0,0,1,0-.31c0-.23.08-.54.13-1,.13-.86.32-2.1.56-3.72l0,.09L429.79.28l.15-.05L427.1,4.38l-.05.08H427a20.37,20.37,0,0,0-5.39.07l-.1,0-.06-.09-3-4.06.22.06L411,3.73l.12-.22c.28,1.53.6,3.22.91,5l0,.12-.1.08a20.21,20.21,0,0,0-3.75,3.85l-.08.1-.14,0-5-.79.24-.14-3.09,7.73-.08-.29L404.25,22l.13.08,0,.15a20.11,20.11,0,0,0,.06,5.36l0,.15-.12.09-4.07,2.95.08-.3c1,2.42,2.14,5,3.27,7.65l-.28-.15,4.95-.9.15,0,.1.12a20.3,20.3,0,0,0,3.82,3.75h0c.05.11-.09-.25.11.25h0v.14l0,.15,0,.32-.1.62-.2,1.25c-.14.82-.27,1.65-.4,2.47l-.16-.28,7.72,3.11-.3.09,2.86-4.14.09-.12.15,0a20,20,0,0,0,5.36-.06l.15,0,.09.12,2.94,4.08-.29-.08,7.66-3.26-.14.26q-.46-2.52-.9-5l0-.14.11-.08a20.63,20.63,0,0,0,3.76-3.83l.08-.11.13,0,5,.81-.23.13c1.1-2.72,2.14-5.28,3.12-7.72l.07.24-4.13-2.87-.09-.07v-.11a20.11,20.11,0,0,0,0-5.38v-.1l.08-.06,4.08-2.93-.05.18-3.23-7.67.13.07-5,.87h0l0,0a21.42,21.42,0,0,0-2.79-3L437,8.45l-.25-.22.28.18c.18.14.45.34.8.63A19.7,19.7,0,0,1,440.7,12l-.08,0,4.95-.94.09,0,0,.09,3.3,7.64.05.11-.1.07-4.06,3,.06-.16a20.36,20.36,0,0,1,.08,5.48l-.08-.18,4.15,2.85.13.09-.06.15c-1,2.44-2,5-3.09,7.73L446,38l-.17,0-5-.79.21-.09A20.92,20.92,0,0,1,437.25,41l.08-.22c.3,1.62.6,3.27.91,4.94l0,.19-.18.07-7.65,3.28-.18.08-.11-.16-3-4.08.24.1a20.57,20.57,0,0,1-5.49.07l.24-.11-2.86,4.14-.12.17-.18-.08-7.73-3.1-.19-.08,0-.2c.13-.82.27-1.65.4-2.48l.2-1.24.1-.62.05-.32,0-.15v-.14h0c.2.5.05.14.1.25h0a20.82,20.82,0,0,1-3.93-3.85l.25.1-4.95.9-.2,0-.08-.19-3.26-7.66-.08-.18.16-.12L404,27.39l-.1.23a21.09,21.09,0,0,1-.06-5.49l.11.23-4.14-2.86-.15-.11.07-.18,3.11-7.72.07-.17.18,0,5,.8-.21.09a20.42,20.42,0,0,1,3.85-3.91l-.08.2c-.31-1.73-.62-3.41-.9-4.95l0-.16.14-.06L418.53.11l.13-.06.09.12,2.93,4.09-.16-.07a20.5,20.5,0,0,1,5.47,0l-.14.06L429.73.09l.06-.09.09,0,7.71,3.15.06,0v.07c-.28,1.59-.49,2.82-.64,3.67-.07.41-.13.72-.17,1A1.77,1.77,0,0,1,436.76,8.23Z"/><rect class="cls-2" x="26.9" y="112.78" width="80.42" height="83.83"/><rect class="cls-5" x="21.45" y="112.78" width="80.42" height="83.83"/><path class="cls-2" d="M101.9,196.63H21.43V112.75H101.9Zm-80.42,0h80.37V112.8H21.48Z"/><rect class="cls-5" x="32.26" y="124.05" width="58.8" height="61.29"/><path class="cls-2" d="M32.26,185.75a9.62,9.62,0,0,1-1.45,1.68c-.94,1-2.26,2.34-3.74,3.79s-2.83,2.76-3.84,3.68a8.71,8.71,0,0,1-1.7,1.41A9.82,9.82,0,0,1,23,194.64c.94-1,2.26-2.34,3.74-3.8s2.85-2.76,3.85-3.68A8.74,8.74,0,0,1,32.26,185.75Z"/><path class="cls-2" d="M91.06,185.6a9,9,0,0,1,1.69,1.45c1,.94,2.33,2.26,3.79,3.73s2.75,2.84,3.67,3.85a8.7,8.7,0,0,1,1.42,1.7,9.62,9.62,0,0,1-1.68-1.45c-1-.94-2.34-2.26-3.8-3.74s-2.76-2.85-3.68-3.85A9.81,9.81,0,0,1,91.06,185.6Z"/><path class="cls-2" d="M90.9,124.21a9.43,9.43,0,0,1,1.45-1.69c.94-1,2.26-2.33,3.74-3.79s2.84-2.75,3.84-3.67a9.59,9.59,0,0,1,1.7-1.42,9.23,9.23,0,0,1-1.44,1.68c-.94,1-2.27,2.34-3.75,3.8s-2.85,2.76-3.85,3.68A8.86,8.86,0,0,1,90.9,124.21Z"/><path class="cls-2" d="M32.1,124.36a9.86,9.86,0,0,1-1.69-1.45c-1-.94-2.33-2.26-3.78-3.74s-2.76-2.84-3.68-3.84a9.59,9.59,0,0,1-1.42-1.7,9.78,9.78,0,0,1,1.68,1.44c1,.94,2.34,2.27,3.8,3.75s2.76,2.85,3.68,3.85A8.86,8.86,0,0,1,32.1,124.36Z"/><path class="cls-2" d="M90.9,185.34s0-.11,0-.3,0-.49,0-.85c0-.77,0-1.88,0-3.31,0-2.91,0-7.13-.06-12.49,0-10.74-.07-26-.12-44.34l.23.22-58.63,0h0l.26-.26c0,22.49,0,43.54,0,61.29l-.23-.22,42.46.11,11.93.06,3.15,0,.82,0h-.77l-3.11,0-11.88.06-42.6.11H32v-.22c0-17.75,0-38.8,0-61.29v-.26h.27l58.63,0h.23v.23c0,18.37-.09,33.71-.12,44.48,0,5.34,0,9.55-.06,12.44,0,1.42,0,2.51,0,3.27,0,.35,0,.62,0,.83S90.9,185.34,90.9,185.34Z"/><rect class="cls-6" x="51.85" y="144.88" width="19.62" height="19.62"/><rect class="cls-2" x="67.47" y="23.08" width="50.62" height="52.76"/><rect class="cls-5" x="64.04" y="23.08" width="50.62" height="52.76"/><path class="cls-2" d="M114.67,75.86H64V23.07h50.64Zm-50.61,0h50.58V23.1H64.06Z"/><rect class="cls-5" x="70.85" y="30.18" width="37.01" height="38.58"/><path class="cls-2" d="M70.85,69a5.85,5.85,0,0,1-.92,1.06c-.59.63-1.42,1.47-2.35,2.39s-1.78,1.73-2.42,2.31a5.61,5.61,0,0,1-1.07.89A6.46,6.46,0,0,1,65,74.6c.59-.62,1.43-1.47,2.36-2.38s1.79-1.74,2.42-2.32A6,6,0,0,1,70.85,69Z"/><path class="cls-2" d="M107.85,68.92a5.82,5.82,0,0,1,1.07.91c.62.59,1.46,1.42,2.38,2.35S113,74,113.62,74.6a6,6,0,0,1,.89,1.07,5.61,5.61,0,0,1-1.06-.91c-.62-.59-1.47-1.42-2.39-2.36s-1.74-1.79-2.32-2.42A6.7,6.7,0,0,1,107.85,68.92Z"/><path class="cls-2" d="M107.75,30.28a6.41,6.41,0,0,1,.92-1.06c.59-.63,1.42-1.47,2.35-2.39s1.79-1.73,2.42-2.31a5.61,5.61,0,0,1,1.07-.89,6.46,6.46,0,0,1-.91,1.06c-.59.62-1.43,1.47-2.36,2.39s-1.79,1.73-2.42,2.31A6,6,0,0,1,107.75,30.28Z"/><path class="cls-2" d="M70.75,30.37a5.82,5.82,0,0,1-1.07-.91c-.62-.59-1.46-1.42-2.38-2.35S65.57,25.32,65,24.69a6.42,6.42,0,0,1-.9-1.07,5.61,5.61,0,0,1,1.06.91c.63.59,1.47,1.42,2.39,2.36s1.74,1.79,2.32,2.42A6.7,6.7,0,0,1,70.75,30.37Z"/><path class="cls-2" d="M107.75,68.75v-.18c0-.14,0-.31,0-.54,0-.49,0-1.18,0-2.08,0-1.83,0-4.49,0-7.87,0-6.75,0-16.38-.07-27.9l.14.14-36.9,0h0l.16-.16c0,14.16,0,27.4,0,38.57l-.14-.14,26.72.07,7.51,0,2,0h.69s0,0-.16,0h-.5l-2,0-7.47,0-26.81.07h-.14v-.14c0-11.17,0-24.41,0-38.57V30h.17l36.9,0h.15v.15c0,11.56-.06,21.22-.08,28,0,3.37,0,6,0,7.83,0,.9,0,1.58,0,2.06,0,.22,0,.39,0,.52S107.76,68.76,107.75,68.75Z"/><rect class="cls-6" x="83.18" y="43.29" width="12.35" height="12.35"/></g><g id="Floor"><path class="cls-7" d="M660.56,427.41c0,.14-146.46.26-327.08.26s-327.11-.12-327.11-.26,146.43-.26,327.11-.26S660.56,427.26,660.56,427.41Z"/></g><g id="Device"><path class="cls-8" d="M553.37,69.26H148.76a12.64,12.64,0,0,0-12.63,12.63V367.68a12.64,12.64,0,0,0,12.63,12.63H304.05s9.88,30.54-20.74,46.35h145.2s-34.57-11.85-25.68-46.35H553.38A12.63,12.63,0,0,0,566,367.68V81.89A12.63,12.63,0,0,0,553.37,69.26Z"/><path class="cls-7" d="M356.47,350.25c5.5,7.87-3.11,16.48-11,11a2.71,2.71,0,0,1-.67-.68c-5.49-7.86,3.11-16.46,11-11A2.71,2.71,0,0,1,356.47,350.25Z"/><rect class="cls-5" x="145.26" y="86.39" width="410.77" height="243.65" rx="3.27"/><path class="cls-9" d="M552.76,330.55H148.54a3.78,3.78,0,0,1-3.78-3.78V89.67a3.78,3.78,0,0,1,3.78-3.78H552.76a3.78,3.78,0,0,1,3.77,3.78v237.1A3.78,3.78,0,0,1,552.76,330.55ZM148.54,86.89a2.79,2.79,0,0,0-2.78,2.78v237.1a2.79,2.79,0,0,0,2.78,2.78H552.76a2.78,2.78,0,0,0,2.77-2.78V89.67a2.78,2.78,0,0,0-2.77-2.78Z"/><path class="cls-8" d="M179,95.8a3.28,3.28,0,1,1-3.28-3.28A3.28,3.28,0,0,1,179,95.8Z"/><path class="cls-8" d="M159.07,95.8a3.28,3.28,0,1,1-3.28-3.28A3.28,3.28,0,0,1,159.07,95.8Z"/><path class="cls-8" d="M168.61,95.8a3.28,3.28,0,1,1-3.28-3.28A3.28,3.28,0,0,1,168.61,95.8Z"/><path class="cls-7" d="M556.33,105.65c0,.15-92.1.26-205.67.26S145,105.8,145,105.65s92.07-.26,205.69-.26S556.33,105.51,556.33,105.65Z"/><rect class="cls-10" x="224.51" y="265.87" width="121.72" height="24.69" rx="12.34"/><path class="cls-7" d="M455.09,290.55a13.05,13.05,0,0,0,5-1.13,12.33,12.33,0,0,0,4.82-3.93,12.23,12.23,0,0,0-8.24-19.37,23.22,23.22,0,0,0-3.25-.11h-3.4l-31.32,0-181.34.08a12.08,12.08,0,0,0-10.28,18.43,12.35,12.35,0,0,0,4.53,4.29,12.51,12.51,0,0,0,6,1.45h60.78l81.53.06,55,.08,14.95.05,3.88,0,1.33,0-1.33,0-3.88,0-14.95.05-55,.08-81.53.05-48.14,0H237.66a13,13,0,0,1-6.27-1.51,12.58,12.58,0,0,1-.43-21.92,12.59,12.59,0,0,1,6.43-1.77l181.34.07,31.32,0h3.4a23.81,23.81,0,0,1,3.28.12,12.43,12.43,0,0,1,3.43,23.66,13,13,0,0,1-3.75,1C455.53,290.56,455.09,290.55,455.09,290.55Z"/><path class="cls-7" d="M313.68,304.09v-4.45h.82v4.41c0,1.84.87,2.69,2.38,2.69s2.38-.85,2.38-2.69v-4.41h.8v4.45c0,2.22-1.2,3.38-3.18,3.38S313.68,306.31,313.68,304.09Z"/><path class="cls-7" d="M328.61,302.3c0,1.65-1.19,2.65-3.17,2.65h-2.09v2.45h-.82v-7.76h2.91C327.42,299.64,328.61,300.64,328.61,302.3Zm-.82,0c0-1.24-.82-1.95-2.37-1.95h-2.07v3.88h2.07C327,304.23,327.79,303.52,327.79,302.3Z"/><path class="cls-7" d="M330.39,299.64h3.16a3.89,3.89,0,1,1,0,7.76h-3.16Zm3.11,7.05a3.18,3.18,0,1,0,0-6.34h-2.29v6.34Z"/><path class="cls-7" d="M344.31,305.33H340l-.93,2.07h-.86l3.55-7.76h.82l3.54,7.76h-.86Zm-.3-.67-1.87-4.17-1.86,4.17Z"/><path class="cls-7" d="M348.51,300.35h-2.73v-.71h6.28v.71h-2.73v7h-.82Z"/><path class="cls-7" d="M358.86,306.69v.71h-5.49v-7.76h5.32v.71h-4.5v2.76h4v.7h-4v2.88Z"/><path class="cls-10" d="M363.65,304.36a10,10,0,0,1,1.29-5.19h.75a11.32,11.32,0,0,0,0,10.38h-.75A10,10,0,0,1,363.65,304.36Z"/><path class="cls-10" d="M373.1,305.36h-1.55v2h-.8v-2h-4.38v-.58l4.12-5.14h.88l-4,5h3.37v-1.8h.78v1.8h1.55Z"/><path class="cls-10" d="M373.84,303.52c0-2.47,1.29-3.95,3.09-3.95s3.11,1.48,3.11,3.95-1.31,4-3.11,4S373.84,306,373.84,303.52Zm5.38,0c0-2.08-.94-3.22-2.29-3.22s-2.29,1.14-2.29,3.22.94,3.22,2.29,3.22S379.22,305.59,379.22,303.52Z"/><path class="cls-10" d="M381.07,301.69c0-1.27.71-2.11,1.75-2.11s1.75.83,1.75,2.11-.72,2.11-1.75,2.11S381.07,303,381.07,301.69Zm2.95,0c0-1-.48-1.61-1.2-1.61s-1.2.61-1.2,1.61.47,1.61,1.2,1.61S384,302.7,384,301.69Zm3.5-2.05h.66l-5.3,7.76h-.66Zm-1.69,5.71c0-1.26.72-2.11,1.75-2.11s1.75.85,1.75,2.11-.71,2.11-1.75,2.11S385.83,306.61,385.83,305.35Zm2.95,0c0-1-.47-1.61-1.2-1.61s-1.2.6-1.2,1.61.48,1.61,1.2,1.61S388.78,306.35,388.78,305.35Z"/><path class="cls-10" d="M390,309.55a11.24,11.24,0,0,0,0-10.38h.75a11,11,0,0,1,0,10.38Z"/><path class="cls-7" d="M278.05,136.48V139h4.37v1.75h-4.37v3.44h-2.19v-9.44H283v1.75Z"/><path class="cls-7" d="M284.48,134.73h2.19v9.44h-2.19Z"/><path class="cls-7" d="M294.92,144.17l-1.82-2.63h-2v2.63h-2.18v-9.44H293c2.52,0,4.1,1.31,4.1,3.43a3.07,3.07,0,0,1-1.94,3l2.12,3Zm-2.05-7.66h-1.78v3.29h1.78c1.34,0,2-.62,2-1.64S294.21,136.51,292.87,136.51Z"/><path class="cls-7" d="M307.41,144.17v-5.66l-2.78,4.66h-1l-2.77-4.54v5.54h-2.05v-9.44h1.81l3.53,5.87,3.48-5.87h1.8l0,9.44Z"/><path class="cls-7" d="M325.92,134.73l-3.09,9.44h-2.35l-2.07-6.39-2.15,6.39h-2.33l-3.1-9.44h2.26l2.13,6.64,2.23-6.64h2l2.16,6.69,2.2-6.69Z"/><path class="cls-7" d="M333,142.15h-4.38l-.84,2h-2.24l4.21-9.44H332l4.22,9.44h-2.29Zm-.69-1.66-1.49-3.62-1.5,3.62Z"/><path class="cls-7" d="M343.17,144.17l-1.82-2.63h-2v2.63h-2.18v-9.44h4.08c2.53,0,4.11,1.31,4.11,3.43a3.08,3.08,0,0,1-2,3l2.12,3Zm-2.05-7.66h-1.78v3.29h1.78c1.34,0,2-.62,2-1.64S342.46,136.51,341.12,136.51Z"/><path class="cls-7" d="M354.38,142.42v1.75h-7.31v-9.44h7.14v1.75h-5v2.05h4.39v1.7h-4.39v2.19Z"/><path class="cls-7" d="M368.44,134.73l-4.14,9.44H363l-4.15-9.44h1.45l3.4,7.76,3.43-7.76Z"/><path class="cls-7" d="M376.49,143v1.17h-6.85v-9.44h6.66v1.17H371v2.9h4.73V140H371V143Z"/><path class="cls-7" d="M385,144.17l-2-2.9a5.68,5.68,0,0,1-.59,0H380v2.87h-1.35v-9.44h3.68c2.45,0,3.94,1.24,3.94,3.29a3,3,0,0,1-2.08,3l2.24,3.17Zm0-6.15c0-1.35-.9-2.12-2.63-2.12H380v4.25h2.29C384.05,140.15,385,139.37,385,138Z"/><path class="cls-7" d="M387.62,143.09l.5-1.05a4.88,4.88,0,0,0,3.12,1.09c1.63,0,2.33-.63,2.33-1.45,0-2.31-5.72-.85-5.72-4.36,0-1.46,1.13-2.7,3.62-2.7a5.54,5.54,0,0,1,3,.84l-.44,1.08a4.88,4.88,0,0,0-2.59-.77c-1.61,0-2.3.67-2.3,1.5,0,2.3,5.72.86,5.72,4.33,0,1.44-1.16,2.68-3.65,2.68A5.62,5.62,0,0,1,387.62,143.09Z"/><path class="cls-7" d="M396.86,134.73h1.35v9.44h-1.35Z"/><path class="cls-7" d="M400.27,139.45a5,5,0,1,1,5,4.83A4.81,4.81,0,0,1,400.27,139.45Zm8.69,0a3.67,3.67,0,1,0-3.65,3.63A3.54,3.54,0,0,0,409,139.45Z"/><path class="cls-7" d="M420.49,134.73v9.44h-1.1l-5.67-7v7h-1.35v-9.44h1.11l5.67,7v-7Z"/><rect class="cls-10" x="321.34" y="174.36" width="58" height="58"/><polygon class="cls-5" points="344.7 183.69 344.55 205.39 336.3 205.39 350.73 224.78 364.08 205.46 355.97 205.46 356.19 183.69 344.7 183.69"/><rect class="cls-10" x="376.29" y="182.07" width="16.84" height="6.09" rx="2.91"/><rect class="cls-10" x="376.29" y="194.07" width="16.84" height="6.09" rx="2.91"/><rect class="cls-10" x="376.29" y="206.07" width="16.84" height="6.09" rx="2.91"/><rect class="cls-10" x="376.29" y="218.08" width="16.84" height="6.09" rx="2.91"/><rect class="cls-10" x="309.01" y="182.07" width="16.84" height="6.09" rx="2.91"/><rect class="cls-10" x="309.01" y="194.07" width="16.84" height="6.09" rx="2.91"/><rect class="cls-10" x="309.01" y="206.07" width="16.84" height="6.09" rx="2.91"/><rect class="cls-10" x="309.01" y="218.08" width="16.84" height="6.09" rx="2.91"/><rect class="cls-10" x="323.25" y="167.36" width="16.84" height="6.09" rx="2.91" transform="translate(161.27 502.07) rotate(-90)"/><rect class="cls-10" x="335.26" y="167.36" width="16.84" height="6.09" rx="2.91" transform="translate(173.27 514.08) rotate(-90)"/><rect class="cls-10" x="347.26" y="167.36" width="16.84" height="6.09" rx="2.91" transform="translate(185.27 526.08) rotate(-90)"/><rect class="cls-10" x="359.26" y="167.36" width="16.84" height="6.09" rx="2.91" transform="translate(197.28 538.09) rotate(-90)"/><rect class="cls-10" x="323.25" y="234.02" width="16.84" height="6.09" rx="2.91" transform="translate(94.61 568.74) rotate(-90)"/><rect class="cls-10" x="335.26" y="234.02" width="16.84" height="6.09" rx="2.91" transform="translate(106.61 580.74) rotate(-90)"/><rect class="cls-10" x="347.26" y="234.02" width="16.84" height="6.09" rx="2.91" transform="translate(118.61 592.74) rotate(-90)"/><rect class="cls-10" x="359.26" y="234.02" width="16.84" height="6.09" rx="2.91" transform="translate(130.62 604.75) rotate(-90)"/><path class="cls-10" d="M300,208.22l-.77,0-2.24,0-8.51.06-30.48.09.15-.06-25.83,23.38-.07.07H221l-39.93,0,.14-.06c-11,9.13-20.2,16.8-26.71,22.2L147,260.18l-2,1.63-.52.41c-.12.1-.18.14-.19.13l.16-.15.5-.45c.47-.39,1.12-1,2-1.68l7.48-6.34L181,231.39l.06,0h.09l39.93,0h11.11l-.17.07,25.87-23.32.06-.06H258l30.48.09,8.51.06,2.24,0Z"/><path class="cls-10" d="M250,185.77a.94.94,0,0,1,0,.27l0,.81c0,.76,0,1.8.05,3.11,0,2.74,0,6.61.09,11.36v.09l-.07.06L231,218.19l-.07.06h-3.11l-31.11-.07-9.43-.09-2.56-.05a4.65,4.65,0,0,1-.89,0,6,6,0,0,1,.89-.05l2.56-.05,9.43-.08,31.11-.08h3l-.17.07,19.24-16.62-.07.14c0-4.75.07-8.62.09-11.36,0-1.31,0-2.35.05-3.11q0-.48,0-.81A.94.94,0,0,1,250,185.77Z"/><path class="cls-10" d="M237.71,249.78a1.11,1.11,0,0,1,0-.29q0-.33,0-.84c0-.79,0-1.86-.06-3.2,0-2.83-.05-6.78-.09-11.56v-.09l.07-.06L253.16,219l6.23-5.84.07-.07h.1l20.59.1,6,.07,1.62,0a2.44,2.44,0,0,1,.56,0,3,3,0,0,1-.56,0l-1.62.05-6,.07-20.59.09.17-.07-6.21,5.85-15.66,14.64.07-.16c0,4.78-.07,8.73-.09,11.56,0,1.34-.05,2.41-.06,3.2q0,.51,0,.84A.85.85,0,0,1,237.71,249.78Z"/><path class="cls-10" d="M278.91,203.48a2.5,2.5,0,0,1-.44,0l-1.28,0-4.93.05-18,.09.12,0L230.55,225.2l-.07.07h-20l-32.09,0,.15-.05-24.71,20.65-7,5.84-1.88,1.53-.49.39-.18.12.15-.15.47-.42,1.83-1.59,7-5.94,24.59-20.8.06-.05h.09l32.09,0h19.88l-.17.07,23.88-21.49,0-.05h.08l18,.08,4.93,0,1.28,0Z"/><path class="cls-10" d="M555,220.3l-.27,0-.81,0-3.17,0-12,.07h-.07l0-.05L501.07,183l.18.08h-29l-.08-.08-10.65-10.66.18.07-23.32,0,.16-.09q-3.65,5.33-6.64,9.66l-.06.08h-.08l-15.27-.08-4.08,0-1.06,0-.35,0a1.6,1.6,0,0,1,.35,0l1.06,0,4.08-.05,15.27-.07-.14.07,6.59-9.7.06-.09h.11l23.32,0h.1l.07.07,10.67,10.65-.19-.07h29l.07.07,37.46,37.61-.1,0,12,.07,3.17,0,.81,0Z"/><path class="cls-10" d="M555,225.16a1.39,1.39,0,0,1-.33,0l-1,0-3.84,0-14.3.08h-.07l0-.05L498,188l.18.08h-7.41l-56.4-.08-17.09-.08-4.64,0-1.21,0-.41,0,.41,0,1.21,0,4.64-.05,17.09-.08,56.4-.07h7.52l.08.07L535.68,225l-.12,0,14.3.08,3.84,0,1,0A1.19,1.19,0,0,1,555,225.16Z"/><path class="cls-10" d="M555,199.28l-.56,0-1.65,0-6.28.06-22.65.09h-.1l-.06-.06c-5.77-5.92-12.55-12.87-19.88-20.37l.19.08H472.69l-.07-.07-9.74-9.34.15.06-26.63-.09-7.48-.06-2,0-.5,0h-.17s.05,0,.17,0l.5,0,2,0,7.48-.06,26.63-.09h.09l.07.06L473,178.7l-.18-.07h31.35l.07.07L524,199.13l-.15-.07,22.65.09,6.28.06,1.65,0Z"/><path class="cls-10" d="M555,231.57a2.87,2.87,0,0,1-.39,0l-1.15,0-4.43,0-16.46.08h-.07l-.06-.05-34.34-32.23.17.07h-19l.19-.09-25.67,27.76-.07.07h-.09l-27.82-.09-7.77-.06-2,0-.7,0,.7,0,2,0,7.77-.06,27.82-.09-.17.07,25.62-27.81.08-.08H498.4l.07.07,34.24,32.35-.12-.05,16.46.08,4.43.05,1.15,0Z"/><path class="cls-10" d="M500,196.21a2.42,2.42,0,0,1-.5,0l-1.47,0-5.52.06-19.38.1.17-.08L460.6,209.89l-9.22,9.75-.07.08h-.11l-23-.09-6.66-.08-1.77,0a3.69,3.69,0,0,1-.62,0,2.69,2.69,0,0,1,.62,0l1.77,0,6.66-.08,23-.09-.18.08,9.2-9.76L473,196.05l.07-.08h.1l19.38.1,5.52.06,1.47,0A2.42,2.42,0,0,1,500,196.21Z"/><path class="cls-10" d="M250.89,185.93a.89.89,0,1,1-.89-.88A.89.89,0,0,1,250.89,185.93Z"/><path class="cls-10" d="M301,208.22a.89.89,0,1,1-.89-.89A.89.89,0,0,1,301,208.22Z"/><path class="cls-10" d="M184.68,218a.89.89,0,1,1-.88-.89A.88.88,0,0,1,184.68,218Z"/><circle class="cls-10" cx="411.49" cy="181.8" r="0.89"/><path class="cls-10" d="M427.15,169.56a.89.89,0,0,1-1.77,0,.89.89,0,1,1,1.77,0Z"/><path class="cls-10" d="M500.39,196.21a.89.89,0,1,1-.88-.89A.88.88,0,0,1,500.39,196.21Z"/><circle class="cls-10" cx="420.84" cy="219.21" r="0.89"/><path class="cls-7" d="M402.83,380.58c0,.15-22.22.26-49.62.26s-49.62-.11-49.62-.26,22.21-.26,49.62-.26S402.83,380.44,402.83,380.58Z"/></g><g id="Character"><path class="cls-8" d="M17.36,306.74l18.22,61.49a6.41,6.41,0,0,0,6.16,4.6l73.91.21a6.84,6.84,0,0,0,6.85-7.2h0a6.84,6.84,0,0,0-6.83-6.47H87.41L64.77,296.3H25.15A8.13,8.13,0,0,0,17.36,306.74Z"/><path class="cls-7" d="M79.89,364.42c0,.14-7.53.26-16.83.26s-16.83-.12-16.83-.26,7.53-.26,16.83-.26S79.89,364.28,79.89,364.42Z"/><path class="cls-7" d="M22.79,298.25c.14,0,5.17,14.68,11.24,32.88s10.89,33,10.75,33.05-5.17-14.67-11.24-32.88S22.66,298.3,22.79,298.25Z"/><polygon class="cls-8" points="76.82 427.47 72.31 427.36 72.31 372.83 76.82 372.83 76.82 427.47"/><polygon class="cls-8" points="53.6 427.22 95.53 427.22 76.54 420.62 72.03 420.62 53.6 427.22"/><path class="cls-10" d="M43,282.2l6.94,34.66-1.24,26,46.64-7.76L93.5,312.33l0-18.82,11.43,22.16,8.91-17.2L97.5,268.94h0A27.56,27.56,0,0,0,86.84,262a22.34,22.34,0,0,0-6.69-1.28h0a26.78,26.78,0,0,1-16.14,0l-2.71.3-.21,0a20.62,20.62,0,0,0-18,19.39Z"/><path class="cls-10" d="M61.3,261.07s-19.17.15-21.54,20.39l-.32,14.84,16.5-.14Z"/><path class="cls-5" d="M107.07,287.11c0,.14-15.07.26-33.67.26s-33.68-.12-33.68-.26,15.08-.26,33.68-.26S107.07,287,107.07,287.11Z"/><path class="cls-5" d="M107.07,290.32c0,.14-15.07.26-33.67.26s-33.68-.12-33.68-.26,15.08-.26,33.68-.26S107.07,290.17,107.07,290.32Z"/><path class="cls-5" d="M106,284.45c0,.14-14.84.26-33.14.26s-33.14-.12-33.14-.26,14.84-.26,33.14-.26S106,284.31,106,284.45Z"/><path class="cls-7" d="M93.22,315.67c-.15,0-.08-8.2.14-18.32s.52-18.31.66-18.3.08,8.2-.14,18.32S93.36,315.68,93.22,315.67Z"/><path class="cls-11" d="M86.66,302.37s9.07.65,10.7,3,4.12,9.23,3.18,9.28a2.6,2.6,0,0,1-1.63-.51l-2.48-4.4s.39,4.25-1.09,4.34-8.85,1.55-8.85,1.55Z"/><path class="cls-10" d="M39.44,292.35l0,23.37a8.87,8.87,0,0,0,10.75,8.19l36.55-7.53-.08-15L55.1,307.45l-.42-15.86Z"/><path class="cls-7" d="M60.29,322a2.22,2.22,0,0,1,.49-.14l1.41-.32,5.37-1.13,19-3.89-.19.23c0-4.71,0-9.91,0-15.39l.31.25-6.42,1.23-25.12,4.78-.27.06v-.28c.24-6.95.44-12.75.58-16.85.08-2,.15-3.58.19-4.7,0-.52.05-.93.07-1.24a1.81,1.81,0,0,1,.05-.42,1.91,1.91,0,0,1,0,.42v1.24c0,1.13,0,2.72-.08,4.71-.09,4.1-.23,9.9-.39,16.85l-.26-.22,25.1-4.86,6.42-1.23.31-.06v.32c0,5.48,0,10.68,0,15.39V317l-.18,0-19.06,3.71-5.4,1-1.43.25A2.92,2.92,0,0,1,60.29,322Z"/><path class="cls-7" d="M81.26,261.07a1.44,1.44,0,0,1,.15.35,7.32,7.32,0,0,1,.28,1,8.56,8.56,0,0,1-.17,3.93,10.35,10.35,0,0,1-3.17,4.9,9.87,9.87,0,0,1-6.65,2.51,9,9,0,0,1-6.58-2.67,9.31,9.31,0,0,1-2.45-5.29,8.38,8.38,0,0,1,.46-3.91,5.89,5.89,0,0,1,.47-1c.13-.21.2-.31.22-.3s-.23.46-.5,1.34a8.78,8.78,0,0,0-.28,3.79,9.07,9.07,0,0,0,2.42,5,8.69,8.69,0,0,0,6.24,2.48A9.48,9.48,0,0,0,78,270.92a10.29,10.29,0,0,0,3.14-4.64,8.86,8.86,0,0,0,.32-3.8C81.37,261.58,81.21,261.09,81.26,261.07Z"/><path class="cls-5" d="M83,317.62a12.37,12.37,0,0,1,0-2.31c0-1.42.12-3.37.14-5.54s0-4.12-.08-5.54a12.37,12.37,0,0,1,0-2.3,8.89,8.89,0,0,1,.35,2.28c.13,1.42.24,3.39.23,5.57s-.14,4.14-.29,5.56A9,9,0,0,1,83,317.62Z"/><path class="cls-5" d="M81.14,318a9.68,9.68,0,0,1-.07-2.29c0-1.61,0-3.46.06-5.5s0-3.9,0-5.51a11,11,0,0,1,.09-2.29,9.19,9.19,0,0,1,.28,2.28c.1,1.41.17,3.36.16,5.52s-.1,4.11-.21,5.52A9.42,9.42,0,0,1,81.14,318Z"/><path class="cls-10" d="M105.39,420.3l3.27,9.39s17.81,18.82,22.56,17.33c3.12-1-1.34-5.91-8.9-20.82l-1.91-6.28Z"/><path class="cls-12" d="M107.06,425.05l1.25,4.21s10.41,10.29,13.43,12.6,6.72,5.6,9.47,5,.33-3.08.33-3.08-.74,1.83-2.06,1.43-3.8-1.45-9.49-6.56-6.61-6.32-6.61-6.32.27-2.61-.83-4S109.35,424.83,107.06,425.05Z"/><path class="cls-7" d="M131.56,443.93a2.05,2.05,0,0,1-.76.89,2.93,2.93,0,0,1-3.06-.11,87.77,87.77,0,0,1-8.58-6.62c-3.23-2.75-6-5.45-7.91-7.44L109,428.27l-.61-.65a1.38,1.38,0,0,0-.23-.21,1.16,1.16,0,0,0,.18.25l.58.68c.51.59,1.26,1.44,2.21,2.45a103.8,103.8,0,0,0,7.87,7.52,77.39,77.39,0,0,0,8.68,6.58,3.76,3.76,0,0,0,1.84.47,2.62,2.62,0,0,0,1.37-.44,1.79,1.79,0,0,0,.6-.69A.92.92,0,0,0,131.56,443.93Z"/><path class="cls-7" d="M128.66,437.59a2.73,2.73,0,0,0-1.31,0,6.82,6.82,0,0,0-2.86,1.34,5.39,5.39,0,0,0-1.92,2.49,2.65,2.65,0,0,0-.21,1.29s.1-.49.4-1.21a5.81,5.81,0,0,1,1.9-2.35,7.69,7.69,0,0,1,2.73-1.36C128.16,437.59,128.65,437.64,128.66,437.59Z"/><path class="cls-7" d="M113.28,434.32a2.23,2.23,0,0,0,.14-.48,8.24,8.24,0,0,0,.17-1.35,7.16,7.16,0,0,0-1.18-4.3,6.78,6.78,0,0,0-3.49-2.76,5.06,5.06,0,0,0-1.34-.27,1.24,1.24,0,0,0-.5,0,11.84,11.84,0,0,1,1.77.44,6.92,6.92,0,0,1,3.32,2.73,7.37,7.37,0,0,1,1.22,4.14C113.38,433.61,113.22,434.31,113.28,434.32Z"/><path class="cls-7" d="M106.55,421.83c-.06,0,.43,1.34.9,3a10.16,10.16,0,0,0,1.13,2.94s-.4-1.34-.86-3A10,10,0,0,0,106.55,421.83Z"/><path class="cls-7" d="M122.73,427.53a3.56,3.56,0,0,0-2,.23,3.76,3.76,0,0,0-1.74,1c0,.07.8-.43,1.83-.77S122.74,427.61,122.73,427.53Z"/><path class="cls-7" d="M123.23,429.14a3.2,3.2,0,0,0-3.12,1.09c.06.06.64-.42,1.5-.71S123.22,429.23,123.23,429.14Z"/><path class="cls-7" d="M124.69,431.08a2.58,2.58,0,0,0-3.17,1.07,7.72,7.72,0,0,1,1.48-.85A7.15,7.15,0,0,1,124.69,431.08Z"/><path class="cls-7" d="M121.58,427c0-.05-.75-.13-1.91-.45a14.31,14.31,0,0,1-2-.71c-.36-.17-.74-.35-1.12-.57s-.73-.51-.75-.89.42-.62.79-.57a2.3,2.3,0,0,1,1,.55c.64.49,1.19,1,1.63,1.37.9.81,1.41,1.37,1.44,1.34a1.8,1.8,0,0,0-.31-.43c-.22-.26-.55-.63-1-1.06a18.9,18.9,0,0,0-1.6-1.42,2.44,2.44,0,0,0-1.17-.62.92.92,0,0,0-1.11.86,1.59,1.59,0,0,0,.91,1.12c.39.21.77.4,1.14.56a12.42,12.42,0,0,0,2.05.67,10.5,10.5,0,0,0,1.43.24A2.15,2.15,0,0,0,121.58,427Z"/><path class="cls-7" d="M120.73,426.83a14.65,14.65,0,0,0,.11-1.78,8,8,0,0,1,.35-1.88,4.28,4.28,0,0,1,.49-1c.22-.3.56-.57.87-.43s.4.57.39.93a4.29,4.29,0,0,1-.2,1.09,6.21,6.21,0,0,1-.86,1.69c-.65.88-1.18,1.33-1.15,1.36s.16-.08.4-.28a8,8,0,0,0,.91-1,6.11,6.11,0,0,0,.95-1.73,4.68,4.68,0,0,0,.23-1.16,1.21,1.21,0,0,0-.56-1.2c-.53-.22-1,.21-1.2.52a4.22,4.22,0,0,0-.52,1.07,7.08,7.08,0,0,0-.3,2c0,.55,0,1,0,1.31A1.58,1.58,0,0,0,120.73,426.83Z"/><path class="cls-10" d="M150,422.77l-.68-6.55-17.92.33,0,10.56,1.14.08c5.07.31,25.82,1.22,29.22.23C165.63,426.32,150,422.77,150,422.77Z"/><g class="cls-13"><path class="cls-9" d="M138.15,427a6.34,6.34,0,0,0-2.2-4,5.48,5.48,0,0,0-4.5-1.24l.05,5.05Z"/></g><g class="cls-13"><path class="cls-9" d="M157.65,424.77s5.46,1.59,4.78,2.47-21.69.73-31-.13l0-.4,24.5.37S156.58,424.81,157.65,424.77Z"/></g><path class="cls-7" d="M131.23,426.7a2.07,2.07,0,0,0,.31,0l.91.06,3.34.17c2.82.11,6.72.23,11,.26s8.21,0,11-.1l3.34-.11.91,0,.31,0a1.09,1.09,0,0,0-.31,0h-.91l-3.35,0c-2.82,0-6.72.07-11,0s-8.21-.12-11-.2l-3.35-.09-.91,0Z"/><path class="cls-7" d="M156,427.36a7.31,7.31,0,0,1,.63-1.56,7.47,7.47,0,0,1,1.15-1.24,2.47,2.47,0,0,0-1.34,1.13A2.35,2.35,0,0,0,156,427.36Z"/><path class="cls-7" d="M150.59,424.63s.31-.28.59-.69.44-.77.39-.8-.31.27-.58.68S150.54,424.6,150.59,424.63Z"/><path class="cls-7" d="M149.11,423.85s.33-.15.65-.42.54-.54.5-.59-.33.15-.65.42S149.07,423.8,149.11,423.85Z"/><path class="cls-7" d="M148.18,422.14a2.21,2.21,0,0,0,1,.13,2.12,2.12,0,0,0,1-.1,2.3,2.3,0,0,0-1-.12A2.2,2.2,0,0,0,148.18,422.14Z"/><path class="cls-7" d="M147.86,420.94a2,2,0,0,0,1.07.31,1.9,1.9,0,0,0,1.11-.14,119.9,119.9,0,0,1-2.18-.17Z"/><path class="cls-7" d="M151.23,423.06a3.64,3.64,0,0,0,1.18,0,7.26,7.26,0,0,0,1.26-.26,3.5,3.5,0,0,0,.72-.29.61.61,0,0,0,.3-.36.46.46,0,0,0-.18-.46,2.2,2.2,0,0,0-2.69.6,2.13,2.13,0,0,0-.39.77.86.86,0,0,0,0,.32,3,3,0,0,1,.55-1,2,2,0,0,1,1-.63,1.87,1.87,0,0,1,1.41.1c.18.14.11.35-.1.47a3.06,3.06,0,0,1-.67.28,9.22,9.22,0,0,1-1.21.3C151.68,423,151.23,423,151.23,423.06Z"/><path class="cls-7" d="M151.53,423.12a1.11,1.11,0,0,0,.14-.8,1.84,1.84,0,0,0-.31-.85,1.2,1.2,0,0,0-1-.6.46.46,0,0,0-.37.53,1.16,1.16,0,0,0,.2.52,3.57,3.57,0,0,0,.55.71,1.85,1.85,0,0,0,.67.47s-.23-.21-.55-.58a3.3,3.3,0,0,1-.49-.7c-.17-.24-.27-.68,0-.73s.6.26.78.49a2.14,2.14,0,0,1,.33.76A4.79,4.79,0,0,1,151.53,423.12Z"/><path class="cls-7" d="M131.64,421.77s.52,0,1.35.05a6.07,6.07,0,0,1,3,1.22,5.76,5.76,0,0,1,1.83,2.58,13.17,13.17,0,0,1,.34,1.29s0-.13,0-.36a5.12,5.12,0,0,0-.2-1,5.54,5.54,0,0,0-1.84-2.7,5.81,5.81,0,0,0-3.08-1.2,5.22,5.22,0,0,0-1,0C131.76,421.72,131.63,421.75,131.64,421.77Z"/><path class="cls-7" d="M140.48,425.27a15.46,15.46,0,0,0,5.37.09c0-.06-1.21,0-2.69,0S140.49,425.21,140.48,425.27Z"/><path class="cls-7" d="M136.87,425.24s.1.25.22.52.19.51.25.51.1-.28-.05-.6S136.91,425.2,136.87,425.24Z"/><path class="cls-7" d="M135.53,423.58c-.05,0,.07.23.26.42s.38.31.42.26-.07-.23-.26-.42S135.57,423.53,135.53,423.58Z"/><path class="cls-7" d="M133.59,422.8c0,.07.25.07.52.16s.47.24.52.2-.11-.29-.44-.41S133.57,422.75,133.59,422.8Z"/><path class="cls-7" d="M132.21,422.44c0,.05.08.15.23.21s.3.06.32,0-.08-.15-.24-.21S132.23,422.38,132.21,422.44Z"/><polygon class="cls-14" points="131.44 420.07 149.75 420.12 149.35 416.22 131.43 416.55 131.44 420.07"/><path class="cls-7" d="M131.93,331.76C114.2,333.6,90.69,336,90.69,336l3.21,28.86s34.54-9.13,34.29-8.39,1.6,61.41,1.6,61.41h20.8l.39-68.71A17.28,17.28,0,0,0,131.93,331.76Z"/><path class="cls-7" d="M48.26,343.41v8.95c0,6.09,6.94,12.55,13,12.55H66c3.71,0,9.52-2.7,12.52-4.89l1.8-1.32L102,425.79s24.78-4.44,24.78-5.22S110,365.62,102.24,340.48c-3.16-10.27-14.16-16.24-24.32-12.75-.35.12-.69.24-1,.38C65.78,332.55,48.26,343.41,48.26,343.41Z"/><path class="cls-8" d="M126.77,420.57a.86.86,0,0,1-.11-.24c-.07-.19-.16-.43-.28-.72-.23-.63-.57-1.57-1-2.78-.83-2.43-2-6-3.35-10.33-2.76-8.74-6.47-20.85-10.5-34.25-2-6.7-3.91-13.08-5.65-18.89-.87-2.9-1.69-5.66-2.46-8.25-.38-1.29-.75-2.54-1.11-3.73a33.86,33.86,0,0,0-1.13-3.4,13.85,13.85,0,0,0-3.49-5A30.13,30.13,0,0,0,94,330.17c-1.06-.71-1.91-1.23-2.48-1.58l-.65-.41a1.77,1.77,0,0,1-.22-.15.89.89,0,0,1,.24.1l.68.37c.6.32,1.46.81,2.54,1.51a27.37,27.37,0,0,1,3.75,2.8,14,14,0,0,1,3.64,5,34.24,34.24,0,0,1,1.18,3.42c.36,1.2.74,2.44,1.14,3.73.78,2.58,1.62,5.33,2.5,8.23,1.75,5.81,3.67,12.19,5.69,18.88,4,13.37,7.69,25.48,10.35,34.29,1.34,4.35,2.43,7.88,3.19,10.37.38,1.19.68,2.13.89,2.82.09.3.17.54.23.73A.82.82,0,0,1,126.77,420.57Z"/><path class="cls-8" d="M132,347.83c.13.09-1.05,1.86-2,4.26s-1.43,4.48-1.58,4.45a11.32,11.32,0,0,1,1.1-4.65A11.11,11.11,0,0,1,132,347.83Z"/><path class="cls-8" d="M136,350.62c.06.14-1.73.92-3.59,2.4s-3.06,3-3.19,2.92a8.83,8.83,0,0,1,2.87-3.33A8.69,8.69,0,0,1,136,350.62Z"/><path class="cls-8" d="M102.22,425.79c-.14,0-6-17.91-13.06-40.09s-12.71-40.22-12.58-40.26,6,17.9,13.07,40.1S102.36,425.75,102.22,425.79Z"/><path class="cls-7" d="M63.22,236.2c-.68-1.6-2.13-4.28-2.48-6a8.89,8.89,0,0,1,.3-5.11,5.38,5.38,0,0,1,3.75-3.3,20.65,20.65,0,0,0,3.17-.4,9.31,9.31,0,0,0,2.84-2.34A9,9,0,0,1,76,216.71a5.38,5.38,0,0,1,3,.42,3,3,0,0,1,1.71,2.36,14.24,14.24,0,0,1,3.63-.87,4.83,4.83,0,0,1,3.5,1,2.94,2.94,0,0,1,.81,3.39,2.39,2.39,0,0,1,3.08.87,3.1,3.1,0,0,1-.2,3.33,5.69,5.69,0,0,1-3.43,2,8.26,8.26,0,0,1-3.64-.1"/><path class="cls-11" d="M75.58,221.32a11.74,11.74,0,0,1,11.74,11.52c.11,5.83.15,12-.13,13.84C86,254,80.4,255,80.4,255s-.09,4.59-.1,8.95a8,8,0,0,1-8.08,7.7h0a7.61,7.61,0,0,1-8-7.25l-.34-31.16a11.73,11.73,0,0,1,11.74-11.87Z"/><path class="cls-7" d="M85.77,236a1,1,0,0,1-.9.95.9.9,0,0,1-1-.85.94.94,0,0,1,.9-.95A.89.89,0,0,1,85.77,236Z"/><path class="cls-7" d="M86,235.28c-.12.12-.83-.41-1.84-.4s-1.76.51-1.87.38.07-.27.39-.51a2.63,2.63,0,0,1,1.49-.46,2.54,2.54,0,0,1,1.47.47C85.93,235,86,235.22,86,235.28Z"/><path class="cls-7" d="M75.64,236.15a.94.94,0,0,1-.9.95.91.91,0,0,1-1-.85.94.94,0,0,1,.9-.95A.89.89,0,0,1,75.64,236.15Z"/><path class="cls-7" d="M76,235.47c-.12.12-.83-.41-1.84-.4s-1.75.5-1.86.38.06-.28.38-.51a2.59,2.59,0,0,1,1.5-.46,2.41,2.41,0,0,1,1.46.47C76,235.19,76.09,235.41,76,235.47Z"/><path class="cls-7" d="M79.7,243a6.92,6.92,0,0,1,1.65-.29c.26,0,.5-.08.54-.26a1.26,1.26,0,0,0-.17-.76l-.76-2a34.69,34.69,0,0,1-1.72-5.15,34.26,34.26,0,0,1,2.13,5c.25.69.5,1.35.73,2a1.42,1.42,0,0,1,.13,1,.68.68,0,0,1-.42.38,1.92,1.92,0,0,1-.44.06A6.16,6.16,0,0,1,79.7,243Z"/><path class="cls-15" d="M80.4,255a18.63,18.63,0,0,1-9.82-2.62s2.38,5,9.72,4.35Z"/><path class="cls-7" d="M76.73,243.67c.16,0,.16,1.09,1.1,1.87s2.11.66,2.12.81-.26.22-.75.23a2.69,2.69,0,0,1-1.77-.62,2.34,2.34,0,0,1-.86-1.56C76.53,243.94,76.65,243.67,76.73,243.67Z"/><path class="cls-7" d="M76.29,231.5c-.1.28-1.11.15-2.3.29s-2.14.47-2.3.22.1-.38.48-.64a3.85,3.85,0,0,1,1.71-.6,3.78,3.78,0,0,1,1.8.21C76.12,231.15,76.33,231.37,76.29,231.5Z"/><path class="cls-7" d="M85.61,232.35c-.18.23-.88,0-1.72,0s-1.55.15-1.71-.09,0-.34.35-.56a2.48,2.48,0,0,1,2.76.08C85.59,232,85.68,232.24,85.61,232.35Z"/><path class="cls-11" d="M64.77,235.76c-.1,0-4.24-1.45-4.28,2.83s4.26,3.44,4.27,3.31S64.77,235.76,64.77,235.76Z"/><path class="cls-15" d="M63.47,240.27s-.08,0-.21.11a.73.73,0,0,1-.55,0,1.84,1.84,0,0,1-.84-1.66,2.39,2.39,0,0,1,.22-1.06.85.85,0,0,1,.57-.57.37.37,0,0,1,.43.21c.06.12,0,.2,0,.21s.1-.07.06-.25A.46.46,0,0,0,63,237a.6.6,0,0,0-.41-.11,1.06,1.06,0,0,0-.79.66,2.52,2.52,0,0,0-.27,1.19,1.92,1.92,0,0,0,1.07,1.85.76.76,0,0,0,.68-.1C63.46,240.37,63.48,240.28,63.47,240.27Z"/><path class="cls-7" d="M88,227.8a15.56,15.56,0,0,1-9.66-.49c-3.43-1.3-7.32-1.72-8.09-1s-.61,4.12-3.75,5.43c0,0,.87,6.4-1.71,6.43s-2-10.08-2-10.08L68,223l6.71-2.34,7.11,1.14L88,223Z"/><polygon class="cls-2" points="75.64 321.13 146.53 321.81 159.75 284.45 108.19 284.8 96.22 318.4 75.64 318.7 75.64 321.13"/><circle class="cls-9" cx="129.79" cy="303.51" r="2.87" transform="matrix(0.3, -0.95, 0.95, 0.3, -198.63, 336.73)"/><polygon class="cls-7" points="0 321.36 0 325.45 17.02 325.45 17.02 427.36 20.41 427.36 20.41 325.45 174.59 325.45 174.59 427.36 177.92 427.36 177.92 325.45 196.33 325.45 196.33 321.36 0 321.36"/></g><g id="Plant"><path class="cls-10" d="M599.66,345.27c4.37-2.26,9.51-2.55,14.36-1.75,2.6.43,5.32,1.21,7.09,3.17s2.11,5.4.07,7.08a6.78,6.78,0,0,1-4.47,1.13c-3.79,0-8-.71-11,1.57-1.72,1.3-2.88,3.47-4.94,4.11a4.89,4.89,0,0,1-5.38-2.39,8.33,8.33,0,0,1-.61-6.17A9.42,9.42,0,0,1,599.66,345.27Z"/><path class="cls-10" d="M589.66,326c2.67,3.81,7.86,2.55,10.27.22s3.42-5.7,4.34-8.92c2.12-7.35,4.25-15.06,2.68-22.54a12.54,12.54,0,0,0-2.88-6.13,6.55,6.55,0,0,0-6.2-2.07c-2.62.7-4.24,3.26-5.42,5.7a53.8,53.8,0,0,0-5.31,23.06c0,3.71.43,7.61,2.52,10.68"/><path class="cls-10" d="M582.33,331.43c2.9-3.44,3.45-8.46,2.16-12.77s-4.21-8-7.56-11a40.73,40.73,0,0,0-13.55-8,14.34,14.34,0,0,0-6.09-1,6.39,6.39,0,0,0-5.11,3.09c-1.42,2.72-.06,6,1.42,8.7A103.71,103.71,0,0,0,562.5,324c2.66,3.43,5.72,6.82,9.78,8.38s8.28,1.37,10.44-1.45"/><path class="cls-7" d="M589.48,383.48a8.51,8.51,0,0,0,.24-1.74c.12-1.26.28-2.84.46-4.72a66.52,66.52,0,0,1,1.07-6.94,53.37,53.37,0,0,1,2.52-8.19,29.69,29.69,0,0,1,4.18-7.4,15.58,15.58,0,0,1,5.28-4.4,14.69,14.69,0,0,1,4.45-1.38,8.83,8.83,0,0,0,1.73-.25,8,8,0,0,0-1.76,0,13.56,13.56,0,0,0-4.64,1.21,15.6,15.6,0,0,0-5.57,4.43,29.57,29.57,0,0,0-4.34,7.56,50.76,50.76,0,0,0-2.5,8.32,59.94,59.94,0,0,0-.92,7c-.15,2-.21,3.63-.24,4.76A8.33,8.33,0,0,0,589.48,383.48Z"/><path class="cls-7" d="M589.81,379.84a3.63,3.63,0,0,0,0-.81v-2.3c0-2,0-4.88.1-8.44.18-7.13.79-14.81,2-25.63,1.12-10.17,2.63-22,4.22-29.71.34-1.75.68-3.33,1-4.71s.58-2.57.83-3.54.4-1.64.54-2.23a4.19,4.19,0,0,0,.14-.79,2.89,2.89,0,0,0-.28.75c-.18.58-.4,1.31-.67,2.2s-.6,2.14-.94,3.52-.74,3-1.12,4.69a263,263,0,0,0-4.44,27.57c-1.18,10.85-1.72,20.72-1.77,27.87,0,3.57,0,6.47.13,8.46.06.94.1,1.7.14,2.3A3.07,3.07,0,0,0,589.81,379.84Z"/><path class="cls-7" d="M589.85,360.8a15.79,15.79,0,0,0,0-2.4,65.47,65.47,0,0,0-.74-6.51,85.75,85.75,0,0,0-2.11-9.48,77.67,77.67,0,0,0-4-11.22,59.74,59.74,0,0,0-11.64-18.13,30.54,30.54,0,0,0-2.74-2.54c-.42-.36-.79-.71-1.17-1l-1.06-.73a16,16,0,0,0-2-1.3c-.12.16,2.86,1.91,6.62,5.91a62.93,62.93,0,0,1,11.35,18.07,88.1,88.1,0,0,1,4,11.11A95.55,95.55,0,0,1,588.6,352c.5,2.7.79,4.91,1,6.44A15.46,15.46,0,0,0,589.85,360.8Z"/><polygon class="cls-7" points="571.45 394.38 573.36 420.52 606.94 420.52 608.85 394.38 571.45 394.38"/><rect class="cls-7" x="568.21" y="384.08" width="44.65" height="10.3"/><polygon class="cls-8" points="568.21 419.52 568.21 422.38 570.3 422.38 612.11 422.38 612.11 419.52 568.21 419.52"/><polygon class="cls-8" points="572.36 427.41 570.3 422.38 610.51 422.38 608.12 427.41 572.36 427.41"/><path class="cls-2" d="M608.22,402.93a.9.9,0,0,1-.15.24c-.14.17-.3.39-.51.66l-1.95,2.51-.09.11-.08-.12c-1.23-1.7-2.88-4-4.81-6.65h.28l-4.73,6.7-.15.21-.17-.19-5.61-6.68h.32l-.31.38-5,6.29-.17.21-.15-.21-4.74-6.7h.28c-2.34,2.66-4.32,4.91-5.83,6.64l-.11.12-.08-.13-1.82-3.07-.47-.81a1.21,1.21,0,0,1-.14-.3,2.34,2.34,0,0,1,.19.26l.52.79,1.92,3h-.19l5.74-6.73.15-.17.13.18,4.77,6.67h-.32l5-6.3.31-.38.16-.2.16.19c2,2.35,3.85,4.61,5.6,6.69h-.32c1.73-2.4,3.34-4.65,4.78-6.66l.14-.2.14.2,4.7,6.72h-.17l2-2.44.54-.63C608.15,403,608.21,402.92,608.22,402.93Z"/><path class="cls-8" d="M609.31,394.21c0,.12-8.41.21-18.79.21s-18.79-.09-18.79-.21,8.41-.21,18.79-.21S609.31,394.1,609.31,394.21Z"/><path class="cls-7" d="M611,422.66c0,.12-9.15.21-20.42.21s-20.43-.09-20.43-.21,9.15-.21,20.43-.21S611,422.55,611,422.66Z"/></g></g></svg>